<svg width="44" height="45" viewBox="0 0 44 45" fill="none" xmlns="http://www.w3.org/2000/svg">
<path d="M30.6788 17.1449C31.4869 16.3918 31.5314 15.1262 30.7783 14.3182C30.0252 13.5102 28.7596 13.4657 27.9516 14.2188L22.0993 19.6732L16.6449 13.821C15.8918 13.0129 14.6262 12.9684 13.8182 13.7215C13.0102 14.4746 12.9657 15.7402 13.7188 16.5482L19.1732 22.4004L13.321 27.8549C12.5129 28.608 12.4684 29.8736 13.2215 30.6816C13.9746 31.4896 15.2402 31.5341 16.0482 30.781L21.9004 25.3266L27.3549 31.1788C28.108 31.9869 29.3736 32.0314 30.1816 31.2783C30.9896 30.5252 31.0341 29.2596 30.281 28.4516L24.8266 22.5993L30.6788 17.1449Z" fill="#EA4949"/>
<path fill-rule="evenodd" clip-rule="evenodd" d="M0 22.5C0 10.3497 9.84974 0.5 22 0.5C34.1503 0.5 44 10.3497 44 22.5C44 34.6503 34.1503 44.5 22 44.5C9.84974 44.5 0 34.6503 0 22.5ZM22 40.5C12.0589 40.5 4 32.4411 4 22.5C4 12.5589 12.0589 4.5 22 4.5C31.9411 4.5 40 12.5589 40 22.5C40 32.4411 31.9411 40.5 22 40.5Z" fill="#EA4949"/>
</svg>
