<svg width="150" height="150" viewBox="0 0 150 150" fill="none" xmlns="http://www.w3.org/2000/svg">
<path d="M103.125 100C95.1605 99.9999 87.4431 97.2341 81.2915 92.1752C75.1399 87.1163 70.9358 80.0783 69.3977 72.2636C67.8595 64.449 69.0827 56.3427 72.8583 49.3298C76.6338 42.317 82.7274 36.8328 90.0978 33.8143C97.4683 30.7958 105.658 30.4304 113.268 32.7804C120.878 35.1304 127.436 40.0501 131.821 46.6988C136.206 53.3475 138.147 61.3126 137.311 69.2332C136.475 77.1538 132.914 84.5383 127.238 90.125" stroke="#EA4949" stroke-width="10" stroke-linecap="round"/>
<path d="M103.125 125V100M103.125 125H121.875M103.125 125H84.375" stroke="#EA4949" stroke-width="10" stroke-linecap="round" stroke-linejoin="round"/>
<path d="M12.5 68.75V64.0625C11.2568 64.0625 10.0645 64.5564 9.18544 65.4354C8.30636 66.3145 7.8125 67.5068 7.8125 68.75H12.5ZM50 68.75H54.6875C54.6875 67.5068 54.1936 66.3145 53.3146 65.4354C52.4355 64.5564 51.2432 64.0625 50 64.0625V68.75ZM54.6875 106.25C54.6875 105.007 54.1936 103.815 53.3146 102.935C52.4355 102.056 51.2432 101.562 50 101.562C48.7568 101.562 47.5645 102.056 46.6854 102.935C45.8064 103.815 45.3125 105.007 45.3125 106.25H54.6875ZM45.3125 81.25C45.3125 82.4932 45.8064 83.6855 46.6854 84.5646C47.5645 85.4436 48.7568 85.9375 50 85.9375C51.2432 85.9375 52.4355 85.4436 53.3146 84.5646C54.1936 83.6855 54.6875 82.4932 54.6875 81.25H45.3125ZM12.5 73.4375H50V64.0625H12.5V73.4375ZM17.1875 106.25V68.75H7.8125V106.25H17.1875ZM31.25 120.312C27.5204 120.312 23.9435 118.831 21.3063 116.194C18.6691 113.556 17.1875 109.98 17.1875 106.25H7.8125C7.8125 112.466 10.2818 118.427 14.6772 122.823C19.0726 127.218 25.034 129.688 31.25 129.688V120.312ZM45.3125 106.25C45.3125 109.98 43.8309 113.556 41.1937 116.194C38.5565 118.831 34.9796 120.312 31.25 120.312V129.688C34.3279 129.688 37.3756 129.081 40.2191 127.903C43.0627 126.726 45.6464 124.999 47.8228 122.823C49.9992 120.646 51.7256 118.063 52.9034 115.219C54.0813 112.376 54.6875 109.328 54.6875 106.25H45.3125ZM45.3125 68.75V81.25H54.6875V68.75H45.3125Z" fill="#EA4949"/>
<path d="M18.75 68.75H43.75V35.1125C43.7494 34.0476 43.4768 33.0004 42.9578 32.0705C42.4389 31.1405 41.691 30.3585 40.785 29.7988C39.8791 29.2391 38.8451 28.9201 37.7812 28.8722C36.7173 28.8243 35.6589 29.049 34.7062 29.525L22.2062 35.775C21.1682 36.2937 20.2951 37.0911 19.6847 38.078C19.0743 39.0648 18.7506 40.2021 18.75 41.3625V68.75Z" stroke="#EA4949" stroke-width="10"/>
</svg>
