<svg width="14" height="22" viewBox="0 0 14 22" fill="none" xmlns="http://www.w3.org/2000/svg">
<path fill-rule="evenodd" clip-rule="evenodd" d="M1 0C0.447715 0 0 0.447715 0 1H1C0 1 0 1.00008 0 1.00017V1.00043V1.00122L2.38419e-06 1.0039L1.72257e-05 1.01359L0.000130117 1.05004C0.00025773 1.08181 0.000510395 1.12839 0.00101072 1.18893C0.0020113 1.31 0.00400269 1.48692 0.00796634 1.71285C0.0158924 2.16464 0.0317125 2.8128 0.0632991 3.60247C0.126415 5.18036 0.252747 7.33011 0.506116 9.61043C0.764715 11.9378 1.28082 14.0001 1.73083 15.4787C1.95623 16.2193 2.16608 16.8168 2.32073 17.2319C2.39432 17.4295 2.4555 17.5859 2.5 17.697V21C2.5 21.5523 2.94772 22 3.5 22H10.5C11.0523 22 11.5 21.5523 11.5 21V17.697C11.5445 17.5859 11.6057 17.4295 11.6793 17.2319C11.8339 16.8168 12.0438 16.2193 12.2692 15.4787C12.7192 14.0001 13.2353 11.9378 13.4939 9.61043C13.7473 7.33011 13.8736 5.18036 13.9367 3.60247C13.9683 2.8128 13.9841 2.16464 13.992 1.71285C13.996 1.48692 13.998 1.31 13.999 1.18893C13.9995 1.12839 13.9997 1.08181 13.9999 1.05004L14 1.01359L14 1.0039L14 1.00122V1.00043V1.00017C14 1.00008 14 1 13 1H14C14 0.447715 13.5523 0 13 0H1ZM2.04232 3C2.02931 2.61911 2.0203 2.2829 2.01405 2H11.9859C11.9797 2.2829 11.9707 2.61911 11.9577 3H2.04232ZM2.13276 5C2.2058 6.29978 2.31889 7.81461 2.49388 9.38957C2.73528 11.5622 3.21918 13.4999 3.64417 14.8963C3.85011 15.573 4.04125 16.1194 4.18237 16.5H9.81763C9.95875 16.1194 10.1499 15.573 10.3558 14.8963C10.7808 13.4999 11.2647 11.5622 11.5061 9.38957C11.6811 7.81461 11.7942 6.29978 11.8672 5H2.13276ZM4.5 18.5H9.5V20H4.5V18.5Z" fill="#EA4949"/>
</svg>
