<svg width="26" height="26" viewBox="0 0 26 26" fill="none" xmlns="http://www.w3.org/2000/svg">
<path fill-rule="evenodd" clip-rule="evenodd" d="M13 7.54545C9.98754 7.54545 7.54545 9.98754 7.54545 13C7.54545 16.0125 9.98754 18.4545 13 18.4545C16.0125 18.4545 18.4545 16.0125 18.4545 13C18.4545 9.98754 16.0125 7.54545 13 7.54545ZM9.72727 13C9.72727 14.8075 11.1925 16.2727 13 16.2727C14.8075 16.2727 16.2727 14.8075 16.2727 13C16.2727 11.1925 14.8075 9.72727 13 9.72727C11.1925 9.72727 9.72727 11.1925 9.72727 13Z" fill="#1E1E1E"/>
<path d="M19.5455 5.36364C18.943 5.36364 18.4545 5.85205 18.4545 6.45455C18.4545 7.05704 18.943 7.54545 19.5455 7.54545C20.1479 7.54545 20.6364 7.05704 20.6364 6.45455C20.6364 5.85205 20.1479 5.36364 19.5455 5.36364Z" fill="#1E1E1E"/>
<path fill-rule="evenodd" clip-rule="evenodd" d="M5.36364 1C2.95367 1 1 2.95367 1 5.36364V20.6364C1 23.0463 2.95367 25 5.36364 25H20.6364C23.0463 25 25 23.0463 25 20.6364V5.36364C25 2.95367 23.0463 1 20.6364 1H5.36364ZM20.6364 3.18182H5.36364C4.15865 3.18182 3.18182 4.15865 3.18182 5.36364V20.6364C3.18182 21.8413 4.15865 22.8182 5.36364 22.8182H20.6364C21.8413 22.8182 22.8182 21.8413 22.8182 20.6364V5.36364C22.8182 4.15865 21.8413 3.18182 20.6364 3.18182Z" fill="#1E1E1E"/>
<path fill-rule="evenodd" clip-rule="evenodd" d="M13 7.54545C9.98754 7.54545 7.54545 9.98754 7.54545 13C7.54545 16.0125 9.98754 18.4545 13 18.4545C16.0125 18.4545 18.4545 16.0125 18.4545 13C18.4545 9.98754 16.0125 7.54545 13 7.54545ZM9.72727 13C9.72727 14.8075 11.1925 16.2727 13 16.2727C14.8075 16.2727 16.2727 14.8075 16.2727 13C16.2727 11.1925 14.8075 9.72727 13 9.72727C11.1925 9.72727 9.72727 11.1925 9.72727 13Z" stroke="#1E1E1E"/>
<path d="M19.5455 5.36364C18.943 5.36364 18.4545 5.85205 18.4545 6.45455C18.4545 7.05704 18.943 7.54545 19.5455 7.54545C20.1479 7.54545 20.6364 7.05704 20.6364 6.45455C20.6364 5.85205 20.1479 5.36364 19.5455 5.36364Z" stroke="#1E1E1E"/>
<path fill-rule="evenodd" clip-rule="evenodd" d="M5.36364 1C2.95367 1 1 2.95367 1 5.36364V20.6364C1 23.0463 2.95367 25 5.36364 25H20.6364C23.0463 25 25 23.0463 25 20.6364V5.36364C25 2.95367 23.0463 1 20.6364 1H5.36364ZM20.6364 3.18182H5.36364C4.15865 3.18182 3.18182 4.15865 3.18182 5.36364V20.6364C3.18182 21.8413 4.15865 22.8182 5.36364 22.8182H20.6364C21.8413 22.8182 22.8182 21.8413 22.8182 20.6364V5.36364C22.8182 4.15865 21.8413 3.18182 20.6364 3.18182Z" stroke="#1E1E1E"/>
</svg>
