<svg width="20" height="12" viewBox="0 0 20 12" fill="none" xmlns="http://www.w3.org/2000/svg">
<path fill-rule="evenodd" clip-rule="evenodd" d="M0.500001 2.00008C0.499628 1.63731 0.63074 1.28669 0.869052 1.01317C1.10736 0.739647 1.43673 0.561761 1.79614 0.512457C2.15555 0.463152 2.52065 0.545771 2.82381 0.74501C3.12698 0.944249 3.34767 1.24661 3.445 1.59608C5.392 8.09808 14.603 8.09908 16.554 1.60108C16.6088 1.41104 16.7007 1.23371 16.8243 1.07931C16.9479 0.924915 17.1009 0.79649 17.2743 0.701431C17.4478 0.606373 17.6383 0.546557 17.835 0.525428C18.0317 0.504298 18.2305 0.522272 18.4202 0.578315C18.6099 0.634357 18.7867 0.727362 18.9403 0.851975C19.0939 0.976589 19.2213 1.13035 19.3152 1.30441C19.4092 1.47847 19.4678 1.66939 19.4876 1.86618C19.5075 2.06298 19.4883 2.26176 19.431 2.45108C19.0892 3.61866 18.5394 4.71492 17.808 5.68708L18.768 6.64708C18.9112 6.78552 19.0254 6.95109 19.1039 7.13413C19.1824 7.31717 19.2237 7.51402 19.2254 7.71319C19.227 7.91236 19.189 8.10986 19.1134 8.29417C19.0379 8.47848 18.9265 8.6459 18.7856 8.78667C18.6447 8.92745 18.4771 9.03875 18.2928 9.11408C18.1084 9.18941 17.9108 9.22727 17.7117 9.22545C17.5125 9.22363 17.3157 9.18216 17.1327 9.10346C16.9498 9.02476 16.7843 8.91041 16.646 8.76708L15.636 7.75708C15.111 8.11658 14.5516 8.42308 13.966 8.67208L14.209 9.57808C14.3012 9.95865 14.2409 10.3602 14.041 10.6969C13.8411 11.0336 13.5175 11.2788 13.1393 11.3801C12.761 11.4814 12.3582 11.4308 12.0167 11.2391C11.6753 11.0474 11.4224 10.7298 11.312 10.3541L11.061 9.41908C10.356 9.49208 9.644 9.49208 8.939 9.41908L8.689 10.3541C8.5861 10.7384 8.33475 11.0661 7.99024 11.265C7.64574 11.464 7.2363 11.518 6.852 11.4151C6.4677 11.3122 6.14002 11.0608 5.94105 10.7163C5.74207 10.3718 5.6881 9.96238 5.791 9.57808L6.033 8.67108C5.4478 8.42238 4.88873 8.11621 4.364 7.75708L3.354 8.76708C3.2157 8.91041 3.05023 9.02476 2.86727 9.10346C2.6843 9.18216 2.48749 9.22363 2.28832 9.22545C2.08915 9.22727 1.89162 9.18941 1.70724 9.11408C1.52286 9.03875 1.35533 8.92745 1.21442 8.78667C1.07352 8.6459 0.962061 8.47848 0.886553 8.29417C0.811044 8.10986 0.772999 7.91236 0.774635 7.71319C0.776271 7.51402 0.817556 7.31717 0.896082 7.13413C0.974608 6.95109 1.0888 6.78552 1.232 6.64708L2.192 5.68708C1.46226 4.71653 0.913485 3.62236 0.572001 2.45708C0.524512 2.30939 0.500223 2.15522 0.500001 2.00008Z" fill="#EA4949"/>
</svg>
