<svg width="154" height="151" viewBox="0 0 154 151" fill="none" xmlns="http://www.w3.org/2000/svg">
<path d="M111.586 2.41777C104.938 -0.139257 97.5777 -0.139257 90.9299 2.41777L57.7407 15.1718C55.0262 16.2148 52.6916 18.056 51.0447 20.4527C49.3978 22.8494 48.5161 25.689 48.5157 28.597V39.155C51.6996 38.754 54.9212 38.754 58.1051 39.155V28.6066C58.1041 27.6375 58.3968 26.6908 58.9446 25.8913C59.4924 25.0919 60.2696 24.4772 61.1738 24.1283L94.3725 11.3647C98.8044 9.66005 103.711 9.66005 108.143 11.3647L141.332 24.1283C142.236 24.4772 143.013 25.0919 143.561 25.8913C144.109 26.6908 144.402 27.6375 144.401 28.6066V103.213C144.4 104.18 144.106 105.125 143.559 105.922C143.011 106.72 142.235 107.333 141.332 107.681L115.632 117.568V122.392C115.632 124.348 115.402 126.266 114.942 128.107L144.775 116.638C147.489 115.595 149.824 113.754 151.471 111.357C153.118 108.96 153.999 106.121 154 103.213V28.597C153.999 25.689 153.118 22.8494 151.471 20.4527C149.824 18.056 147.489 16.2148 144.775 15.1718L111.586 2.41777ZM135.693 30.3711C135.237 29.1849 134.327 28.2286 133.166 27.7126C132.004 27.1965 130.685 27.1628 129.499 27.6189L102.974 37.8221C101.866 38.2482 100.64 38.2482 99.5316 37.8221L73.0072 27.6189C72.416 27.3742 71.7819 27.2503 71.1421 27.2545C70.5023 27.2587 69.8699 27.3909 69.282 27.6433C68.6941 27.8957 68.1627 28.2632 67.719 28.7242C67.2753 29.1851 66.9284 29.7302 66.6986 30.3273C66.4689 30.9244 66.361 31.5615 66.3812 32.2009C66.4015 32.8404 66.5495 33.4693 66.8166 34.0507C67.0836 34.6321 67.4644 35.1541 67.9363 35.5861C68.4083 36.018 68.9619 36.3512 69.5646 36.5659L96.089 46.769C99.4129 48.0476 103.093 48.0476 106.417 46.769L132.941 36.5659C134.128 36.109 135.084 35.1998 135.6 34.0382C136.116 32.8766 136.15 31.5575 135.693 30.3711ZM87.7462 78.3184C87.2893 77.1322 86.3802 76.176 85.2185 75.6599C84.0569 75.1438 82.7379 75.1101 81.5514 75.5662L53.3104 86.4311L25.0599 75.5662C23.8721 75.1097 22.5517 75.1437 21.3891 75.6607C20.2264 76.1777 19.3168 77.1355 18.8603 78.3232C18.4037 79.5109 18.4377 80.8313 18.9548 81.994C19.4718 83.1566 20.4295 84.0662 21.6172 84.5228L48.5157 94.8602V118.738C48.5157 120.01 49.0208 121.229 49.92 122.128C50.8192 123.028 52.0388 123.533 53.3104 123.533C54.5821 123.533 55.8016 123.028 56.7008 122.128C57.6 121.229 58.1051 120.01 58.1051 118.738V94.8602L84.994 84.5132C86.1802 84.0563 87.1364 83.1472 87.6525 81.9855C88.1686 80.8239 88.2023 79.5049 87.7462 78.3184ZM63.6383 50.3651C56.9904 47.8081 49.6304 47.8081 42.9826 50.3651L9.79342 63.1191C7.07891 64.1621 4.74428 66.0033 3.0974 68.4C1.45052 70.7968 0.568744 73.6363 0.568359 76.5443V122.382C0.568744 125.29 1.45052 128.13 3.0974 130.526C4.74428 132.923 7.07891 134.764 9.79342 135.807L42.973 148.58C49.6236 151.14 56.9876 151.14 63.6383 148.58L96.8274 135.817C99.5401 134.772 101.873 132.93 103.518 130.534C105.163 128.137 106.043 125.298 106.043 122.392V76.5539C106.043 73.647 105.163 70.8083 103.518 68.4117C101.873 66.0151 99.5401 64.1732 96.8274 63.1287L63.6383 50.3651ZM46.4252 59.3121C50.8571 57.6074 55.7638 57.6074 60.1957 59.3121L93.3848 72.0756C94.2889 72.4245 95.0661 73.0392 95.6139 73.8387C96.1617 74.6381 96.4544 75.5848 96.4534 76.5539V122.392C96.4525 123.359 96.1589 124.304 95.6112 125.101C95.0635 125.899 94.2874 126.512 93.3848 126.86L60.1957 139.643C55.7638 141.348 50.8571 141.348 46.4252 139.643L13.2265 126.86C12.3253 126.513 11.5503 125.901 11.0027 125.105C10.4552 124.309 10.1607 123.367 10.1578 122.401V76.5635C10.1568 75.5944 10.4495 74.6477 10.9973 73.8483C11.5451 73.0488 12.3223 72.4341 13.2265 72.0852L46.4252 59.3217V59.3121Z" fill="#EA4949"/>
</svg>
