<svg width="150" height="150" viewBox="0 0 150 150" fill="none" xmlns="http://www.w3.org/2000/svg">
<path d="M27.7766 10.7144C24.6723 10.714 21.6876 11.9114 19.4442 14.057C17.2008 16.2026 15.8717 19.131 15.7337 22.2322L11.0944 126.696C11.0221 128.323 11.2798 129.946 11.8521 131.47C12.4244 132.994 13.2993 134.386 14.4241 135.562C15.549 136.739 16.9005 137.675 18.397 138.315C19.8936 138.955 21.5043 139.285 23.1319 139.286H43.8319C45.46 139.286 47.0713 138.956 48.5685 138.317C50.0657 137.677 51.4178 136.741 52.5432 135.564C53.6687 134.388 54.5441 132.995 55.1167 131.471C55.6893 129.947 55.9472 128.323 55.8748 126.696L51.2301 22.2322C51.0922 19.131 49.7631 16.2026 47.5197 14.057C45.2763 11.9114 42.2916 10.714 39.1873 10.7144H27.7766ZM23.7587 22.5911C23.8043 21.5565 24.2476 20.5794 24.9962 19.8637C25.7449 19.148 26.7409 18.7491 27.7766 18.7501H39.1873C40.223 18.7491 41.219 19.148 41.9676 19.8637C42.7162 20.5794 43.1596 21.5565 43.2051 22.5911L47.8444 127.055C47.8683 127.597 47.7822 128.138 47.5913 128.646C47.4005 129.154 47.1088 129.618 46.7339 130.01C46.3589 130.401 45.9085 130.713 45.4098 130.927C44.9111 131.14 44.3743 131.25 43.8319 131.25H23.1319C22.5895 131.25 22.0528 131.14 21.5541 130.927C21.0553 130.713 20.6049 130.401 20.23 130.01C19.8551 129.618 19.5634 129.154 19.3725 128.646C19.1817 128.138 19.0956 127.597 19.1194 127.055L23.7587 22.5911ZM56.3998 139.286C58.5212 137.079 60.0587 134.32 60.7819 131.25H69.6426V95.0894C69.6426 91.3929 72.6426 88.3929 76.3391 88.3929H113.839C117.536 88.3929 120.536 91.3929 120.536 95.0894V131.25H124.553C128.25 131.25 131.25 128.25 131.25 124.554V45.2251L95.1105 77.9786C94.5341 78.5017 93.8182 78.846 93.0498 78.9699C92.2813 79.0937 91.4935 78.9917 90.782 78.6762C90.0704 78.3607 89.4658 77.8454 89.0417 77.1928C88.6175 76.5402 88.392 75.7784 88.3926 75.0001V45.2251L58.8051 72.0376L58.3444 61.6126L89.7159 33.1822C90.2924 32.6609 91.0079 32.318 91.7754 32.1952C92.5429 32.0723 93.3296 32.1747 94.0401 32.49C94.7506 32.8052 95.3544 33.3198 95.7783 33.9714C96.2022 34.6229 96.428 35.3835 96.4284 36.1608V65.9358L132.573 33.1822C133.15 32.6609 133.865 32.318 134.633 32.1952C135.4 32.0723 136.187 32.1747 136.897 32.49C137.608 32.8052 138.212 33.3198 138.635 33.9714C139.059 34.6229 139.285 35.3835 139.286 36.1608V124.554C139.286 128.461 137.733 132.208 134.971 134.971C132.208 137.734 128.461 139.286 124.553 139.286H56.3998ZM77.6837 131.25H112.5V96.4286H77.6784V131.25H77.6837Z" fill="#EA4949"/>
</svg>
