<svg width="21" height="21" viewBox="0 0 21 21" fill="none" xmlns="http://www.w3.org/2000/svg">
<path fill-rule="evenodd" clip-rule="evenodd" d="M1.00612 0.944336C0.450462 0.944336 0 1.39206 0 1.94434C0 2.49662 0.450462 2.94434 1.00612 2.94434H1.48143C1.93514 2.94434 2.33272 3.24616 2.4521 3.68122L2.8709 5.20746L5.03062 13.0782V14.9443C5.03062 15.6378 5.26739 16.2764 5.66496 16.7845C5.27032 17.2259 5.03062 17.8073 5.03062 18.4443C5.03062 19.825 6.15677 20.9443 7.54593 20.9443C8.9351 20.9443 10.0612 19.825 10.0612 18.4443C10.0612 18.2731 10.0439 18.1059 10.0109 17.9443H13.1299C13.0969 18.1059 13.0796 18.2731 13.0796 18.4443C13.0796 19.825 14.2058 20.9443 15.5949 20.9443C16.9841 20.9443 18.1102 19.825 18.1102 18.4443C18.1102 18.1158 18.0465 17.8021 17.9306 17.5147C18.0438 17.3529 18.1102 17.1563 18.1102 16.9443C18.1102 16.392 17.6598 15.9443 17.1041 15.9443H15.5949H8.049C7.49333 15.9443 7.04287 15.4966 7.04287 14.9443V13.9443H17.3416C18.2492 13.9443 19.0444 13.3405 19.2831 12.4701L20.9281 6.47017C21.2768 5.19798 20.3133 3.94434 18.9866 3.94434H4.61004L4.39344 3.15499C4.0353 1.84981 2.84256 0.944336 1.48143 0.944336H1.00612ZM15.5949 17.9443C15.3171 17.9443 15.0919 18.1682 15.0919 18.4443C15.0919 18.7204 15.3171 18.9443 15.5949 18.9443C15.8727 18.9443 16.098 18.7204 16.098 18.4443C16.098 18.1682 15.8727 17.9443 15.5949 17.9443ZM17.3416 11.9443H6.80523L5.15883 5.94434H18.9866L17.3416 11.9443ZM7.54593 17.9443C7.2681 17.9443 7.04287 18.1682 7.04287 18.4443C7.04287 18.7204 7.2681 18.9443 7.54593 18.9443C7.82376 18.9443 8.049 18.7204 8.049 18.4443C8.049 18.1682 7.82376 17.9443 7.54593 17.9443Z" fill="#EA4949"/>
</svg>
