<svg width="14" height="14" viewBox="0 0 14 14" fill="none" xmlns="http://www.w3.org/2000/svg">
<path fill-rule="evenodd" clip-rule="evenodd" d="M1.28995 0.75C0.944772 0.75 0.664948 1.02982 0.664948 1.375C0.664948 1.72017 0.944772 2 1.28995 2H1.5852C1.86705 2 2.11402 2.18864 2.18818 2.46055L2.44833 3.41445L3.78995 8.33369V9.5C3.78995 9.93344 3.93703 10.3326 4.184 10.6501C3.93885 10.926 3.78995 11.2894 3.78995 11.6875C3.78995 12.5504 4.4895 13.25 5.35245 13.25C6.21539 13.25 6.91495 12.5504 6.91495 11.6875C6.91495 11.5805 6.9042 11.476 6.8837 11.375H8.8212C8.8007 11.476 8.78995 11.5805 8.78995 11.6875C8.78995 12.5504 9.48951 13.25 10.3524 13.25C11.2154 13.25 11.9149 12.5504 11.9149 11.6875C11.9149 11.4822 11.8753 11.2861 11.8034 11.1065C11.8737 11.0054 11.9149 10.8825 11.9149 10.75C11.9149 10.4048 11.6351 10.125 11.2899 10.125H10.3524H5.66495C5.31977 10.125 5.03995 9.84519 5.03995 9.5V8.875H11.4374C12.0013 8.875 12.4953 8.49762 12.6435 7.95362L13.6654 4.20364C13.882 3.40852 13.2834 2.625 12.4593 2.625H3.52868L3.39413 2.13166C3.17166 1.31592 2.43073 0.75 1.5852 0.75H1.28995ZM10.3524 11.375C10.1799 11.375 10.0399 11.5149 10.0399 11.6875C10.0399 11.8601 10.1799 12 10.3524 12C10.525 12 10.6649 11.8601 10.6649 11.6875C10.6649 11.5149 10.525 11.375 10.3524 11.375ZM11.4374 7.625H4.89232L3.86959 3.875H12.4593L11.4374 7.625ZM5.35245 11.375C5.17986 11.375 5.03995 11.5149 5.03995 11.6875C5.03995 11.8601 5.17986 12 5.35245 12C5.52503 12 5.66495 11.8601 5.66495 11.6875C5.66495 11.5149 5.52503 11.375 5.35245 11.375Z" fill="black"/>
</svg>
